#tb 0: 2/25
0,          0,          0,        1,   608256, 0x925a882c
0,          1,          1,        1,   608256, 0x3ff67470
0,          2,          2,        1,   608256, 0x5d1aaeeb
0,          3,          3,        1,   608256, 0x7e9ee92e
0,          4,          4,        1,   608256, 0x368375a5
